<?xml version="1.0" encoding="UTF-8"?>
<svg id="Layer_1" data-name="Layer 1" xmlns="http://www.w3.org/2000/svg" viewBox="0 0 1076.23 1080.7">
  <defs>
    <style>
      .cls-1 {
        fill: #fff;
      }
    </style>
  </defs>
  <g id="white" transform="rotate(-0.46 538 540)">
    <path class="cls-1" d="M220.18,103.76c-14.8,10.84-29.05,22.37-42.64,34.63l6.9,809.99c13.81,12.04,28.23,23.38,43.23,33.97l-7.48-878.59Z"/>
    <path class="cls-1" d="M118.93,200.25c-10.94,13.52-21.23,27.59-30.84,42.15l5.14,603.63c9.86,14.39,20.39,28.26,31.56,41.6l-5.85-687.38Z"/>
    <path class="cls-1" d="M18.53,395.32C8.75,430.61,2.43,467.33,0,505.13l0.68,79.43c3.06,37.87,9.96,74.63,20.4,109.89l-2.55-299.13Z"/>
    <path class="cls-1" d="M423.53,12.22c-22.65,4.89-44.76,11.21-66.25,18.86l8.7,1021.57c21.62,7.28,43.81,13.3,66.56,17.8L423.53,12.22Z"/>
    <path class="cls-1" d="M537.67,0l9.2,1080.54c293.2-5.04,529.37-244.86,529.37-540.15S835.13,0.1,537.67,0Z"/>
    <path class="cls-1" d="M525.49,0.3c-26.55,0.58-52.62,3.06-78.08,7.36l9.08,1067.02c25.52,3.86,51.64,5.89,78.2,6.02L525.49,0.3Z"/>
    <path class="cls-1" d="M321.74,45.2c-18.74,8.22-36.89,17.51-54.44,27.74l8,939.52c17.72,9.92,36.02,18.92,54.9,26.82l-8.46-994.07Z"/>
  </g>
</svg>
